<?xml version="1.0" standalone="no"?>
<!DOCTYPE svg PUBLIC "-//W3C//DTD SVG 20010904//EN"
 "http://www.w3.org/TR/2001/REC-SVG-20010904/DTD/svg10.dtd">
<svg version="1.0" xmlns="http://www.w3.org/2000/svg"
 width="920.000000pt" height="533.000000pt" viewBox="0 0 920.000000 533.000000"
 preserveAspectRatio="xMidYMid meet">

<g transform="translate(0.000000,533.000000) scale(0.100000,-0.100000)"
fill="#000000" stroke="none">
<path d="M1427 4227 c-34 -10 -38 -15 -53 -66 -44 -148 -109 -319 -154 -402
-13 -23 -20 -56 -20 -88 0 -47 -4 -56 -41 -93 -79 -80 -129 -149 -129 -178 0
-16 -4 -32 -10 -35 -5 -3 -10 -13 -10 -21 0 -8 -7 -22 -15 -31 -8 -10 -33 -39
-56 -65 -23 -27 -53 -66 -68 -87 -14 -21 -44 -63 -67 -93 -22 -29 -43 -61 -47
-70 -4 -11 -17 -18 -31 -18 -18 0 -30 -9 -40 -27 -8 -16 -45 -58 -82 -96 -49
-49 -70 -64 -76 -55 -5 7 -22 36 -39 65 -16 29 -39 55 -49 58 -11 4 -20 11
-20 16 0 5 -6 9 -14 9 -8 0 -35 18 -60 39 -25 22 -54 42 -65 46 -10 3 -22 12
-24 19 -6 14 -106 85 -123 87 -5 1 -37 32 -71 70 l-63 68 0 -1639 0 -1640
4600 0 4600 0 -1 1518 c-1 953 -5 1497 -11 1462 -21 -129 -71 -232 -143 -299
-24 -22 -50 -41 -56 -41 -19 0 -73 34 -102 65 -103 110 -127 130 -193 161 -40
19 -76 34 -81 34 -5 0 -16 8 -25 18 -36 39 -63 52 -109 52 -27 0 -54 -6 -61
-14 -12 -11 -19 -8 -48 20 -19 19 -37 34 -41 34 -4 0 -27 27 -51 60 -25 35
-48 58 -56 55 -8 -3 -28 -5 -46 -5 -29 0 -55 -22 -227 -192 -186 -185 -282
-268 -309 -268 -7 0 -28 -11 -46 -25 -18 -14 -38 -25 -44 -25 -6 0 -28 -9 -50
-20 -27 -14 -59 -20 -105 -20 -58 0 -72 4 -120 34 -29 19 -78 57 -108 84 -33
30 -96 70 -160 101 -69 34 -123 68 -156 100 -29 28 -70 55 -98 65 -26 10 -64
24 -83 31 -19 7 -59 16 -89 20 -29 3 -82 17 -118 30 -63 24 -75 25 -309 25
-272 0 -262 2 -289 -72 -7 -18 -29 -76 -50 -128 -20 -52 -42 -113 -47 -135 -6
-22 -20 -64 -31 -93 -11 -29 -23 -67 -26 -85 -5 -21 -13 -33 -26 -34 -11 -2
-14 0 -7 3 6 3 12 13 12 22 0 12 -4 11 -23 -6 l-23 -22 -22 20 -22 21 0 -21
c0 -19 -6 -20 -116 -20 -116 0 -149 -4 -359 -41 -160 -28 -188 -31 -316 -36
-103 -4 -122 -2 -162 16 -25 12 -48 21 -51 21 -3 0 -30 18 -62 40 -31 21 -79
47 -107 56 -29 9 -69 25 -89 35 -21 11 -48 19 -62 19 -13 0 -31 7 -39 15 -8 8
-42 28 -75 45 -49 25 -71 30 -128 30 -48 0 -81 6 -113 22 -52 24 -91 56 -91
74 0 6 -28 42 -62 79 -35 37 -70 79 -79 94 -29 46 -187 167 -283 216 -31 16
-69 40 -86 54 -77 68 -110 93 -156 116 -64 34 -119 71 -170 115 -61 52 -199
98 -349 116 -22 3 -87 29 -145 57 -101 50 -110 57 -252 202 -81 82 -161 164
-178 181 -42 41 -148 93 -292 144 -42 15 -88 34 -102 44 -29 19 -185 21 -249
3z"/>
<path d="M5629 3059 c-6 -12 -9 -40 -6 -62 l5 -39 -31 6 c-17 3 -28 3 -24 -1
14 -13 108 -42 137 -41 33 1 41 14 13 20 -13 3 -7 9 21 23 22 11 42 26 44 33
6 18 -29 14 -65 -8 l-33 -20 -15 36 c-8 20 -15 42 -15 50 0 23 -19 25 -31 3z"/>
<path d="M5380 2898 c0 -7 9 -28 20 -46 l20 -33 -22 -9 c-16 -6 -8 -7 27 -3
50 6 117 33 83 33 -24 0 -23 13 2 35 24 22 26 35 5 35 -8 0 -23 -13 -33 -30
l-18 -29 -35 29 c-38 32 -49 36 -49 18z"/>
<path d="M5276 2613 c-8 -8 15 -63 27 -63 7 0 3 -7 -7 -15 -19 -14 -18 -15 12
-15 42 0 87 21 70 32 -10 6 -9 11 5 19 9 5 17 20 17 32 -1 21 -3 20 -29 -9
l-29 -32 -30 28 c-17 15 -33 26 -36 23z"/>
</g>
</svg>
